<?xml version="1.0" encoding="iso-8859-1"?>
<!-- Uploaded to: SVG Repo, www.svgrepo.com, Generator: SVG Repo Mixer Tools -->
<!DOCTYPE svg PUBLIC "-//W3C//DTD SVG 1.1//EN" "http://www.w3.org/Graphics/SVG/1.1/DTD/svg11.dtd">
<svg version="1.1" id="Capa_1" xmlns="http://www.w3.org/2000/svg" xmlns:xlink="http://www.w3.org/1999/xlink" 
	 width="800px" height="800px" viewBox="0 0 304.634 304.634"
	 xml:space="preserve">
<g>
	<g>
		<g>
			<path style="fill:#030303;" d="M85.282,304.634h-61.06c-10.773,0-19.544-8.766-19.544-19.539V46.216
				c0-5.621,2.425-10.979,6.647-14.678L41.859,4.704c7.136-6.27,18.655-6.27,25.797-0.005l30.525,26.84
				c2.404,2.113,4.231,4.761,5.352,7.688c1.118-2.927,2.934-5.575,5.338-7.688l30.542-26.834c7.142-6.27,18.655-6.27,25.803,0
				l30.534,26.834c2.401,2.113,4.22,4.761,5.341,7.688c1.121-2.927,2.944-5.581,5.357-7.688l30.54-26.834
				c7.147-6.264,18.658-6.264,25.788-0.005l30.528,26.84c4.226,3.7,6.65,9.052,6.65,14.673v238.878
				c0,10.773-8.771,19.539-19.544,19.539h-61.068c-8.314,0-15.438-5.221-18.252-12.551c-2.813,7.33-9.927,12.551-18.24,12.551
				h-61.074c-8.309,0-15.422-5.221-18.238-12.551C100.715,299.419,93.596,304.634,85.282,304.634z M54.759,11.554
				c-1.904,0-3.743,0.692-5.172,1.95L19.053,40.338c-1.698,1.487-2.664,3.631-2.664,5.884v238.878c0,4.312,3.514,7.828,7.833,7.828
				h61.06c4.32,0,7.834-3.517,7.834-7.828v-65.597h20.839v65.585c0,4.312,3.508,7.828,7.822,7.828h61.074
				c4.306,0,7.822-3.517,7.822-7.828v-65.585h20.836v65.585c0,4.312,3.522,7.828,7.834,7.828h61.068
				c4.312,0,7.834-3.517,7.834-7.828V46.211c0-2.247-0.973-4.392-2.665-5.873l-30.522-26.834c-2.859-2.505-7.479-2.505-10.344,0
				l-30.54,26.834c-1.692,1.487-2.665,3.631-2.665,5.884v47.019h-20.836V46.222c0-2.253-0.973-4.397-2.665-5.884l-30.522-26.834
				c-2.862-2.505-7.488-2.513-10.35,0.005l-30.529,26.829c-1.687,1.481-2.653,3.631-2.653,5.884v47.019H93.116V46.222
				c0-2.253-0.972-4.397-2.665-5.878L59.928,13.509C58.499,12.246,56.66,11.554,54.759,11.554z M211.516,203.848h-20.842v-94.962
				h20.842V203.848z M113.96,203.848H93.121v-94.962h20.839V203.848z"/>
		</g>
	</g>
</g>
</svg>