<svg width="100" height="80" viewBox="0 0 100 80" fill="none" xmlns="http://www.w3.org/2000/svg">
<path fill-rule="evenodd" clip-rule="evenodd" d="M41.7 62.37L41.83 62.34V62.24L41.7 62.37Z" fill="black"/>
<path fill-rule="evenodd" clip-rule="evenodd" d="M60.58 61.05V70.9101H60.62V61.05H60.58Z" fill="black"/>
<path fill-rule="evenodd" clip-rule="evenodd" d="M99.92 57.34H99.96V57.3L99.92 57.34Z" fill="black"/>
<path fill-rule="evenodd" clip-rule="evenodd" d="M99.96 34.6201L99.95 57.2101V57.3001L99.92 57.3401L86.26 71.0001L86.18 70.9201H70.48L60.62 70.9101V61.0501L60.63 29.3101H70.49L70.48 61.0501H82.25L90.09 53.2201V34.9301V34.6201H99.92H99.96Z" fill="#2C4B9D"/>
<path fill-rule="evenodd" clip-rule="evenodd" d="M60.62 70.9099V70.9499H70.48V70.9099H60.62Z" fill="black"/>
<path fill-rule="evenodd" clip-rule="evenodd" d="M41.83 62.1899V62.2399L41.85 62.2199L41.83 62.1899Z" fill="black"/>
<path fill-rule="evenodd" clip-rule="evenodd" d="M99.95 57.21V57.3L100 57.25L99.95 57.21Z" fill="black"/>
<path fill-rule="evenodd" clip-rule="evenodd" d="M41.8 41.8501L41.83 62.1901V62.2301L33.07 71.0001L32.99 70.9201V70.9701H14.32V70.7201L0.909985 57.3101H0.619985L0.629985 30.6001H0.649985L0.609985 30.5601L14.32 16.8501V16.6101H32.99V16.6701L33.08 16.5901L43.49 27.0001L36.52 33.9701L29.01 26.4701H18.66L10.49 34.6401V52.9401L18.66 61.1101H29.01L33.23 56.8901V46.7801L41.8 41.8501Z" fill="#2A4A9E"/>
<path fill-rule="evenodd" clip-rule="evenodd" d="M55.66 16.6001V70.9701H45.8V16.6001H55.66Z" fill="#D05638"/>
<path fill-rule="evenodd" clip-rule="evenodd" d="M83.37 16.6101L83.49 16.7201V16.6101H83.37Z" fill="black"/>
<path fill-rule="evenodd" clip-rule="evenodd" d="M99.92 32.6901V34.6201H90.09V34.9301L81.67 26.4701H58.24V16.6101H83.37L83.48 16.7201L99.92 32.6901Z" fill="#D05638"/>
<path fill-rule="evenodd" clip-rule="evenodd" d="M20.78 39.6201V49.4801H33.23V46.7801L41.8 41.8501V39.6201H20.78Z" fill="#CF5639"/>
</svg>
